<?xml version="1.0" standalone="no"?>
<!DOCTYPE svg PUBLIC "-//W3C//DTD SVG 20010904//EN"
 "http://www.w3.org/TR/2001/REC-SVG-20010904/DTD/svg10.dtd">
<svg version="1.0" xmlns="http://www.w3.org/2000/svg"
 width="512.000000pt" height="512.000000pt" viewBox="0 0 512.000000 512.000000"
 preserveAspectRatio="xMidYMid meet">
<metadata>
Created by potrace 1.11, written by Peter Selinger 2001-2013
</metadata>
<g transform="translate(0.000000,512.000000) scale(0.100000,-0.100000)"
fill="#000000" stroke="none">
<path d="M1033 5105 c-140 -30 -294 -147 -361 -273 -18 -33 -41 -95 -52 -138
-20 -76 -20 -118 -20 -2134 0 -2016 0 -2058 20 -2134 27 -107 71 -184 149
-261 311 -311 834 -156 936 277 12 53 15 180 15 781 l0 717 328 0 329 0 254
-382 c760 -1148 894 -1347 932 -1386 59 -61 145 -116 224 -144 101 -34 260
-33 360 4 239 86 387 311 370 562 -10 146 -28 184 -245 512 -109 164 -314 474
-456 687 -141 214 -259 394 -262 402 -4 8 17 29 54 54 206 139 433 429 534
678 88 219 123 416 116 658 -11 360 -135 686 -367 964 -253 305 -615 504
-1011 557 -150 20 -1755 19 -1847 -1z m221 -306 c69 -25 130 -91 151 -162 10
-35 15 -96 15 -195 l0 -144 -162 4 c-146 3 -168 6 -210 26 -86 42 -148 142
-148 238 0 54 37 137 77 176 82 78 172 97 277 57z m1671 -2 c133 -32 210 -59
320 -113 367 -180 629 -533 700 -941 19 -109 19 -302 0 -418 -41 -253 -170
-508 -348 -689 -87 -88 -201 -180 -217 -174 -5 2 -73 97 -150 212 -100 150
-136 212 -128 217 37 23 100 81 155 142 234 262 246 677 29 964 -93 123 -228
219 -381 271 l-80 27 -552 3 -551 3 -4 182 c-4 183 -7 199 -54 320 -6 18 17
18 592 14 514 -3 609 -6 669 -20z m-1930 -770 c49 -16 94 -21 243 -25 l182 -4
0 -468 0 -468 -187 -4 c-172 -3 -194 -6 -260 -30 l-73 -26 0 530 c0 501 1 530
18 523 9 -4 44 -17 77 -28z m1800 -42 c225 -59 372 -279 344 -516 -16 -136
-118 -282 -245 -351 -104 -56 -123 -58 -671 -58 l-503 0 0 470 0 470 508 0
c424 0 518 -3 567 -15z m-1375 -1486 l0 -261 -162 4 c-146 3 -168 6 -210 26
-115 57 -175 199 -134 315 30 83 92 142 174 167 15 5 96 9 180 9 l152 1 0
-261z m734 201 c-47 -116 -49 -275 -4 -389 11 -28 20 -56 20 -61 0 -6 -87 -10
-225 -10 l-225 0 0 260 0 260 229 0 229 0 -24 -60z m599 46 c25 -7 60 -24 77
-36 29 -20 270 -368 270 -389 0 -10 -119 -43 -215 -61 -33 -6 -124 -13 -201
-17 l-142 -6 -36 49 c-62 85 -87 144 -87 211 -1 181 161 301 334 249z m750
-1023 c123 -186 326 -492 450 -679 125 -188 236 -361 247 -385 85 -189 -94
-399 -299 -349 -92 22 -112 44 -339 386 -764 1152 -821 1239 -809 1245 7 3 47
9 89 13 99 7 230 36 338 74 47 17 88 31 92 31 4 1 108 -151 231 -336z m-2508
245 c50 -18 92 -22 243 -26 l182 -4 0 -702 c0 -804 3 -774 -80 -857 -133 -133
-355 -87 -420 88 -19 52 -20 79 -20 794 0 702 1 741 18 734 9 -3 44 -16 77
-27z"/>
</g>
</svg>
